<svg xmlns="http://www.w3.org/2000/svg" xmlns:xlink="http://www.w3.org/1999/xlink" fill="none" version="1.1" width="28" height="28" viewBox="0 0 28 28"><defs><clipPath id="master_svg0_669_10763"><rect x="0" y="0" width="28" height="28" rx="0"/></clipPath></defs><g style="mix-blend-mode:passthrough" clip-path="url(#master_svg0_669_10763)"><g style="mix-blend-mode:passthrough"><path d="M11.66668701171875,1.4583740234375C12.14992701171875,1.4583740234375,12.54168701171875,1.8501240234375,12.54168701171875,2.3333740234375L12.54168701171875,4.6667040234375C12.54168701171875,5.1499540234375,12.14992701171875,5.5417040234375,11.66668701171875,5.5417040234375C11.18343701171875,5.5417040234375,10.79168701171875,5.1499540234375,10.79168701171875,4.6667040234375L10.79168701171875,2.3333740234375C10.79168701171875,1.8501240234375,11.18343701171875,1.4583740234375,11.66668701171875,1.4583740234375ZM16.333287011718753,4.9583740234375C16.816587011718752,4.9583740234375,17.208287011718753,5.3501240234375,17.208287011718753,5.8333740234375L17.208287011718753,8.1667040234375C17.208287011718753,8.6499540234375,16.816587011718752,9.0417040234375,16.333287011718753,9.0417040234375C15.85008701171875,9.0417040234375,15.45828701171875,8.6499540234375,15.45828701171875,8.1667040234375L15.45828701171875,5.8333740234375C15.45828701171875,5.3501240234375,15.85008701171875,4.9583740234375,16.333287011718753,4.9583740234375ZM8.41702701171875,7.8384140234375C8.88007701171875,7.7001540234375,9.14337701171875,7.2126940234375,9.00510701171875,6.7496440234375C8.86684701171875,6.2865940234375,8.379397011718751,6.0233040234375,7.91634701171875,6.1615640234375C6.79311701171875,6.4969440234375,5.8097170117187495,6.9391340234375,5.08757701171875,7.4871640234375C4.37726801171875,8.0262040234375,3.79168701171875,8.772784023437499,3.79168701171875,9.7139240234375C3.79168701171875,14.1864740234375,6.144617011718751,18.1024740234375,9.62501701171875,19.9310740234375L9.62501701171875,23.3460740234375C9.62501701171875,25.7279740234375,12.14163701171875,27.2577740234375,14.26608701171875,26.2025740234375L16.59938701171875,25.0438740234375C17.685387011718753,24.5045740234375,18.37498701171875,23.3996740234375,18.37498701171875,22.1871740234375L18.37498701171875,19.9310740234375C21.85538701171875,18.1024740234375,24.20838701171875,14.1864740234375,24.20838701171875,9.7139240234375C24.20838701171875,8.772784023437499,23.62278701171875,8.0262040234375,22.91238701171875,7.4871640234375C22.19038701171875,6.9391340234375,21.20698701171875,6.4969440234375,20.08368701171875,6.1615640234375C19.62068701171875,6.0233040234375,19.13328701171875,6.2865940234375,18.99498701171875,6.7496440234375C18.85658701171875,7.2126940234375,19.11998701171875,7.7001540234375,19.58298701171875,7.8384140234375C20.59358701171875,8.1401340234375,21.36018701171875,8.5059940234375,21.85458701171875,8.8811940234375C22.36078701171875,9.2653840234375,22.45838701171875,9.5572140234375,22.45838701171875,9.7139240234375C22.45838701171875,9.8514640234375,22.38658701171875,10.0890440234375,22.02168701171875,10.4104340234375C21.65798701171875,10.7306040234375,21.08168701171875,11.0588440234375,20.29428701171875,11.3521540234375C18.72598701171875,11.9362740234375,16.50078701171875,12.3153740234375,13.99998701171875,12.3153740234375C11.49926701171875,12.3153740234375,9.27409701171875,11.9362740234375,7.70576701171875,11.3521540234375C6.9182970117187494,11.0588440234375,6.34199701171875,10.7306040234375,5.97842701171875,10.4104340234375C5.61345701171875,10.0890440234375,5.54168701171875,9.8514640234375,5.54168701171875,9.7139240234375C5.54168701171875,9.5572140234375,5.63923701171875,9.2653840234375,6.14548701171875,8.8811940234375C6.6399070117187495,8.5059940234375,7.40650701171875,8.1401340234375,8.41702701171875,7.8384140234375ZM11.66668701171875,7.2916240234375C12.14992701171875,7.2916240234375,12.54168701171875,7.6833740234375,12.54168701171875,8.1666240234375L12.54168701171875,9.3332940234375C12.54168701171875,9.8165340234375,12.14992701171875,10.2082940234375,11.66668701171875,10.2082940234375C11.18343701171875,10.2082940234375,10.79168701171875,9.8165340234375,10.79168701171875,9.3332940234375L10.79168701171875,8.1666240234375C10.79168701171875,7.6833740234375,11.18343701171875,7.2916240234375,11.66668701171875,7.2916240234375Z" fill-rule="evenodd" fill="#FFFFFF" fill-opacity="1"/></g></g></svg>