<svg xmlns="http://www.w3.org/2000/svg" xmlns:xlink="http://www.w3.org/1999/xlink" fill="none" version="1.1" width="28" height="28" viewBox="0 0 28 28"><g style="mix-blend-mode:passthrough"><g style="mix-blend-mode:passthrough"><g style="mix-blend-mode:passthrough"><path d="M25.666693914794923,8.16667C25.666693914794923,5.58934,23.57729391479492,3.5,20.99999391479492,3.5L7.000003914794922,3.5C4.422713914794922,3.5,2.333335876494922,5.58934,2.333335876494922,8.16667L2.333335876494922,9.91663L7.000083914794922,9.91663C9.255253914794922,9.91663,11.083413914794923,11.74479,11.083413914794923,14C11.083413914794923,16.2551,9.255253914794922,18.0833,7.000083914794922,18.0833L2.333335876494922,18.0833L2.333335876494922,19.8333C2.333335876494922,22.4106,4.422713914794922,24.5,7.000003914794922,24.5L20.99999391479492,24.5C23.57729391479492,24.5,25.666693914794923,22.4106,25.666693914794923,19.8333L25.666693914794923,8.16667ZM7.000083914794922,11.66663C8.288743914794921,11.66663,9.33341391479492,12.7113,9.33341391479492,14C9.33341391479492,15.2886,8.288743914794921,16.3333,7.000083914794922,16.3333L2.333415984794922,16.3333L2.333415984794922,11.66663L7.000083914794922,11.66663Z" fill-rule="evenodd" fill="#9561D8" fill-opacity="1"/></g></g></g></svg>