<svg xmlns="http://www.w3.org/2000/svg" xmlns:xlink="http://www.w3.org/1999/xlink" fill="none" version="1.1" width="28" height="28" viewBox="0 0 28 28"><defs><clipPath id="master_svg0_669_10759"><rect x="0" y="0" width="28" height="28" rx="0"/></clipPath></defs><g style="mix-blend-mode:passthrough" clip-path="url(#master_svg0_669_10759)"><g style="mix-blend-mode:passthrough"><g style="mix-blend-mode:passthrough"><path d="M12.8333740234375,3.5C12.8333740234375,3.5,15.1666740234375,3.5,15.1666740234375,3.5C20.9657740234375,3.5,25.6666740234375,8.20101,25.6666740234375,14C25.6666740234375,19.799,20.9657740234375,24.5,15.1666740234375,24.5C15.1666740234375,24.5,7.0000440234375,24.5,7.0000440234375,24.5C4.4227140234375,24.5,2.3333740234375,22.4106,2.3333740234375,19.8333C2.3333740234375,19.8333,2.3333740234375,14,2.3333740234375,14C2.3333740234375,8.20101,7.0343840234375,3.5,12.8333740234375,3.5C12.8333740234375,3.5,12.8333740234375,3.5,12.8333740234375,3.5ZM14.0000740234375,15.1667C14.6443740234375,15.1667,15.1666740234375,14.6443,15.1666740234375,14C15.1666740234375,13.35566,14.6443740234375,12.83333,14.0000740234375,12.83333C13.3556740234375,12.83333,12.8333740234375,13.35566,12.8333740234375,14C12.8333740234375,14.6443,13.3556740234375,15.1667,14.0000740234375,15.1667C14.0000740234375,15.1667,14.0000740234375,15.1667,14.0000740234375,15.1667ZM19.8333740234375,14C19.8333740234375,14.6443,19.3110740234375,15.1667,18.6666740234375,15.1667C18.0223740234375,15.1667,17.5000740234375,14.6443,17.5000740234375,14C17.5000740234375,13.35566,18.0223740234375,12.83333,18.6666740234375,12.83333C19.3110740234375,12.83333,19.8333740234375,13.35566,19.8333740234375,14C19.8333740234375,14,19.8333740234375,14,19.8333740234375,14ZM9.3333740234375,15.1667C9.9777040234375,15.1667,10.5000440234375,14.6443,10.5000440234375,14C10.5000440234375,13.35566,9.9777040234375,12.83333,9.3333740234375,12.83333C8.6890440234375,12.83333,8.1667040234375,13.35566,8.1667040234375,14C8.1667040234375,14.6443,8.6890440234375,15.1667,9.3333740234375,15.1667C9.3333740234375,15.1667,9.3333740234375,15.1667,9.3333740234375,15.1667Z" fill-rule="evenodd" fill="#FFFFFF" fill-opacity="1"/></g></g></g></svg>