<svg xmlns="http://www.w3.org/2000/svg" xmlns:xlink="http://www.w3.org/1999/xlink" fill="none" version="1.1" width="8.045976638793945" height="14" viewBox="0 0 8.045976638793945 14"><g style="mix-blend-mode:passthrough" transform="matrix(0,1,-1,0,8.045976638793945,-8.045976638793945)"><path d="M14.338866638793945,0.294576C14.729396638793945,-0.0981922,15.362556638793945,-0.0981922,15.753086638793945,0.294576C15.753086638793945,0.294576,21.753076638793946,6.32906,21.753076638793946,6.32906C22.143576638793945,6.72183,22.143576638793945,7.35863,21.753076638793946,7.7514C21.362576638793946,8.14417,20.729376638793944,8.14417,20.338876638793945,7.7514C20.338876638793945,7.7514,15.045976638793945,2.42808,15.045976638793945,2.42808C15.045976638793945,2.42808,9.753086638793945,7.7514,9.753086638793945,7.7514C9.362556638793945,8.14417,8.729393638793946,8.14417,8.338869638793945,7.7514C7.948345538793945,7.35863,7.948345538793945,6.72183,8.338869638793945,6.32906C8.338869638793945,6.32906,14.338866638793945,0.294576,14.338866638793945,0.294576C14.338866638793945,0.294576,14.338866638793945,0.294576,14.338866638793945,0.294576Z" fill-rule="evenodd" fill="#FFFFFF" fill-opacity="1"/></g></svg>