<svg xmlns="http://www.w3.org/2000/svg" xmlns:xlink="http://www.w3.org/1999/xlink" fill="none" version="1.1" width="8" height="14" viewBox="0 0 8 14"><g style="mix-blend-mode:passthrough" transform="matrix(0,-1,1,0,-14,14)"><path d="M6.29289,14.292893C6.68342,13.9023689,7.31658,13.9023689,7.70711,14.292893C7.70711,14.292893,13.7071,20.29289,13.7071,20.29289C14.0976,20.683419999999998,14.0976,21.316580000000002,13.7071,21.70711C13.3166,22.097630000000002,12.6834,22.097630000000002,12.2929,21.70711C12.2929,21.70711,7,16.41421,7,16.41421C7,16.41421,1.70711,21.70711,1.70711,21.70711C1.31658,22.097630000000002,0.683417,22.097630000000002,0.292893,21.70711C-0.0976311,21.316580000000002,-0.0976311,20.683419999999998,0.292893,20.29289C0.292893,20.29289,6.29289,14.292893,6.29289,14.292893C6.29289,14.292893,6.29289,14.292893,6.29289,14.292893Z" fill-rule="evenodd" fill="#FFFFFF" fill-opacity="1"/></g></svg>