<svg xmlns="http://www.w3.org/2000/svg" xmlns:xlink="http://www.w3.org/1999/xlink" fill="none" version="1.1" width="8.25" height="5.958333492279053" viewBox="0 0 8.25 5.958333492279053"><g style="mix-blend-mode:passthrough"><path d="M8.11575,0.134243C8.29473,0.313233,8.29473,0.603433,8.11575,0.782425C8.11575,0.782425,3.07409,5.82409,3.07409,5.82409C2.8951,6.00307,2.6049,6.00307,2.42591,5.82409C2.42591,5.82409,0.134243,3.53243,0.134243,3.53243C-0.0447476,3.35343,-0.0447476,3.06323,0.134243,2.88424C0.313233,2.70525,0.603433,2.70525,0.782425,2.88424C0.782425,2.88424,2.75,4.85183,2.75,4.85183C2.75,4.85183,7.46758,0.134243,7.46758,0.134243C7.64656,-0.0447476,7.93678,-0.0447476,8.11575,0.134243C8.11575,0.134243,8.11575,0.134243,8.11575,0.134243Z" fill-rule="evenodd" fill="#190C98" fill-opacity="1"/></g></svg>