<svg xmlns="http://www.w3.org/2000/svg" xmlns:xlink="http://www.w3.org/1999/xlink" fill="none" version="1.1" width="15.166666030883789" height="15.166666030883789" viewBox="0 0 15.166666030883789 15.166666030883789"><g style="mix-blend-mode:passthrough"><path d="M0.317301,0.317301C0.740368,-0.105767,1.42629,-0.105767,1.84937,0.317301C1.84937,0.317301,7.58333,6.05127,7.58333,6.05127C7.58333,6.05127,13.3173,0.317301,13.3173,0.317301C13.7403,-0.105767,14.4263,-0.105767,14.8494,0.317301C15.2724,0.740368,15.2724,1.42629,14.8494,1.84937C14.8494,1.84937,9.11539,7.58333,9.11539,7.58333C9.11539,7.58333,14.8494,13.3173,14.8494,13.3173C15.2724,13.7403,15.2724,14.4263,14.8494,14.8494C14.4263,15.2724,13.7403,15.2724,13.3173,14.8494C13.3173,14.8494,7.58333,9.11539,7.58333,9.11539C7.58333,9.11539,1.84937,14.8494,1.84937,14.8494C1.42629,15.2724,0.740368,15.2724,0.317301,14.8494C-0.105767,14.4263,-0.105767,13.7403,0.317301,13.3173C0.317301,13.3173,6.05127,7.58333,6.05127,7.58333C6.05127,7.58333,0.317301,1.84937,0.317301,1.84937C-0.105767,1.42629,-0.105767,0.740368,0.317301,0.317301C0.317301,0.317301,0.317301,0.317301,0.317301,0.317301Z" fill-rule="evenodd" fill="#FFFFFF" fill-opacity="1"/></g></svg>