<svg xmlns="http://www.w3.org/2000/svg" xmlns:xlink="http://www.w3.org/1999/xlink" fill="none" version="1.1" width="18.333332061767578" height="18.333332061767578" viewBox="0 0 18.333332061767578 18.333332061767578"><g style="mix-blend-mode:passthrough"><path d="M2.43892,5.84816C1.9445,6.8486,1.66667,7.97519,1.66667,9.16667C1.66667,12.8404,4.30806,15.8972,7.7953,16.5416C7.7953,16.5416,9.66275,13.3041,9.66275,13.3041C9.50008,13.3234,9.3345,13.3333,9.16667,13.3333C7.56177,13.3333,6.16879,12.426,5.47277,11.0962C5.47277,11.0962,2.43892,5.84816,2.43892,5.84816C2.43892,5.84816,2.43892,5.84816,2.43892,5.84816ZM1.74576,3.7843C0.647649,5.2957,0,7.15555,0,9.16667C0,13.8629,3.53159,17.7343,8.08389,18.2701C8.12177,18.277,8.15987,18.2812,8.19791,18.2827C8.51625,18.3162,8.8395,18.3333,9.16667,18.3333C14.2292,18.3333,18.3333,14.2292,18.3333,9.16667C18.3333,7.88234,18.0692,6.6597,17.5923,5.55012C17.58,5.51612,17.5656,5.48315,17.5492,5.45137C16.1237,2.23987,12.9067,0,9.16667,0C6.16997,0,3.50912,1.43797,1.83651,3.66156C1.80228,3.69988,1.77197,3.74101,1.74576,3.7843C1.74576,3.7843,1.74576,3.7843,1.74576,3.7843ZM3.46535,4.29357C3.46535,4.29357,5.33482,7.52747,5.33482,7.52747C5.97143,6.04122,7.44746,5,9.16667,5C9.16667,5,15.4037,5,15.4037,5C14.0582,2.99002,11.767,1.66667,9.16667,1.66667C6.88479,1.66667,4.84092,2.68572,3.46535,4.29357C3.46535,4.29357,3.46535,4.29357,3.46535,4.29357ZM16.2399,6.66667C16.2399,6.66667,12.5003,6.66667,12.5003,6.66667C13.0234,7.36305,13.3333,8.22866,13.3333,9.16667C13.3333,9.98617,13.0967,10.7505,12.6881,11.3949C12.6881,11.3949,9.65625,16.6509,9.65625,16.6509C13.5702,16.3987,16.6667,13.1443,16.6667,9.16667C16.6667,8.29007,16.5162,7.44862,16.2399,6.66667C16.2399,6.66667,16.2399,6.66667,16.2399,6.66667ZM11.3637,10.3605C11.5569,10.0057,11.6667,9.599,11.6667,9.16667C11.6667,7.78596,10.5474,6.66667,9.16667,6.66667C7.78596,6.66667,6.66667,7.78596,6.66667,9.16667C6.66667,9.57542,6.76477,9.96133,6.93874,10.302C6.93874,10.302,7.00479,10.4162,7.00479,10.4162C7.0157,10.4352,7.02578,10.4542,7.03505,10.4736C7.47482,11.1893,8.265,11.6667,9.16667,11.6667C10.0466,11.6667,10.8204,11.212,11.2659,10.5248C11.2659,10.5248,11.3282,10.4169,11.3282,10.4169C11.3393,10.3975,11.3512,10.3787,11.3637,10.3605C11.3637,10.3605,11.3637,10.3605,11.3637,10.3605Z" fill-rule="evenodd" fill="#4A4A4A" fill-opacity="1"/></g></svg>