<svg xmlns="http://www.w3.org/2000/svg" xmlns:xlink="http://www.w3.org/1999/xlink" fill="none" version="1.1" width="18.333332061767578" height="18.333332061767578" viewBox="0 0 18.333332061767578 18.333332061767578"><g style="mix-blend-mode:passthrough"><path d="M9.16667,0C4.10406,0,0,4.10406,0,9.16667C0,14.2292,4.10406,18.3333,9.16667,18.3333C14.2292,18.3333,18.3333,14.2292,18.3333,9.16667C18.3333,4.10406,14.2292,0,9.16667,0ZM1.66667,9.16667C1.66667,5.02453,5.02453,1.66667,9.16667,1.66667C13.3088,1.66667,16.6667,5.02453,16.6667,9.16667C16.6667,13.3088,13.3088,16.6667,9.16667,16.6667C5.02453,16.6667,1.66667,13.3088,1.66667,9.16667ZM6.66667,5.83333C6.20643,5.83333,5.83333,6.20643,5.83333,6.66667C5.83333,7.1269,6.20643,7.5,6.66667,7.5L6.675,7.5C7.13523,7.5,7.50833,7.1269,7.50833,6.66667C7.50833,6.20643,7.13523,5.83333,6.675,5.83333L6.66667,5.83333ZM11.6667,5.83333C11.2064,5.83333,10.8333,6.20643,10.8333,6.66667C10.8333,7.1269,11.2064,7.5,11.6667,7.5L11.675,7.5C12.1352,7.5,12.5083,7.1269,12.5083,6.66667C12.5083,6.20643,12.1352,5.83333,11.675,5.83333L11.6667,5.83333ZM5.33333,10.1667C5.70037,9.89142,6.22057,9.96467,6.49738,10.3298L6.50125,10.3348C6.50621,10.3411,6.51564,10.3528,6.52942,10.3692C6.55705,10.4022,6.60182,10.4535,6.66286,10.5172C6.7856,10.6452,6.97006,10.819,7.20889,10.9927C7.68977,11.3424,8.35458,11.6667,9.16667,11.6667C9.97875,11.6667,10.6436,11.3424,11.1244,10.9927C11.3632,10.819,11.5477,10.6452,11.6705,10.5172C11.7315,10.4535,11.7762,10.4022,11.8039,10.3692C11.8177,10.3528,11.8271,10.3411,11.8321,10.3348L11.8359,10.3298C12.1127,9.96467,12.633,9.89142,13,10.1667C13.3682,10.4428,13.4428,10.9652,13.1667,11.3333L13.1388,11.3693C13.1244,11.3874,13.105,11.4115,13.0805,11.4407C13.0317,11.4989,12.9625,11.5777,12.8738,11.6703C12.6971,11.8547,12.4388,12.0977,12.1047,12.3406C11.4397,12.8242,10.4379,13.3333,9.16667,13.3333C7.89539,13.3333,6.89356,12.8242,6.22861,12.3406C5.89452,12.0977,5.63627,11.8547,5.45954,11.6703C5.37083,11.5777,5.30167,11.4989,5.2528,11.4407C5.22834,11.4115,5.20887,11.3874,5.19451,11.3693L5.16667,11.3333C4.89052,10.9652,4.96514,10.4428,5.33333,10.1667Z" fill-rule="evenodd" fill="#4A4A4A" fill-opacity="1"/></g></svg>