<svg xmlns="http://www.w3.org/2000/svg" xmlns:xlink="http://www.w3.org/1999/xlink" fill="none" version="1.1" width="114" height="153" viewBox="0 0 114 153"><g><path d="M65.0918,142.528L9.4541,109.515L9.4541,43.4899L65.0918,10.4772L101.575,32.1273L95.2793,38.5992L67.4502,22.0717C65.9941,21.2074,64.1895,21.2074,62.7334,22.0717L20.4053,47.1791C18.9492,48.0434,18.0469,49.6456,18.0469,51.3953L18.0469,101.61C18.0469,103.339,18.9492,104.941,20.4053,105.826L62.7129,130.934C63.4512,131.376,64.251,131.587,65.0713,131.587C65.8916,131.587,66.7119,131.376,67.4297,130.934L95.2588,114.406L101.555,120.878L65.0713,142.528L65.0918,142.528ZM82.0723,52.1542L88.3682,45.6823L65.0918,31.8743L27.501,54.199L27.501,98.8062L65.0918,121.11L88.3682,107.302L82.0723,100.83L67.4502,109.515C65.9941,110.38,64.1895,110.38,62.7334,109.515L38.4727,95.1171C37.0166,94.2528,36.1143,92.6506,36.1143,90.9009L36.1143,62.1044C36.1143,60.3757,37.0166,58.7736,38.4727,57.8882L62.7334,43.4899C64.1895,42.6256,65.9941,42.6256,67.4502,43.4899L82.0723,52.1753L82.0723,52.1542ZM112.608,118.475L86.1943,91.3225C84.6768,89.7625,82.3389,89.4463,80.4932,90.5425L65.0918,99.6917L45.5479,88.0971L45.5479,64.9081L65.0918,53.3136L80.4932,62.4628C82.3389,63.559,84.6768,63.2427,86.1943,61.6828L112.608,34.5305C113.654,33.4554,114.146,31.9587,113.962,30.4619C113.777,28.9652,112.916,27.6371,111.645,26.8782L67.4502,0.653508C65.9941,-0.210809,64.1895,-0.210809,62.7334,0.653508L2.3584,36.47C0.902344,37.3343,0,38.9364,0,40.6862L0,112.319C0,114.048,0.902344,115.65,2.3584,116.535L62.7129,152.352C63.4512,152.794,64.251,153.005,65.0713,153.005C65.8916,153.005,66.7119,152.794,67.4297,152.352L111.604,126.127C112.875,125.368,113.736,124.061,113.921,122.543C114.105,121.047,113.613,119.55,112.567,118.475L112.608,118.475Z" fill-rule="evenodd" fill="#FFFFFF" fill-opacity="1"/></g></svg>