<svg xmlns="http://www.w3.org/2000/svg" xmlns:xlink="http://www.w3.org/1999/xlink" fill="none" version="1.1" width="20" height="14" viewBox="0 0 20 14"><g style="mix-blend-mode:passthrough"><path d="M0,1C0,0.447715,0.447715,0,1,0C1,0,19,0,19,0C19.5523,0,20,0.447715,20,1C20,1.55228,19.5523,2,19,2C19,2,1,2,1,2C0.447715,2,0,1.55228,0,1C0,1,0,1,0,1ZM0,7C0,6.44772,0.447715,6,1,6C1,6,19,6,19,6C19.5523,6,20,6.44772,20,7C20,7.55228,19.5523,8,19,8C19,8,1,8,1,8C0.447715,8,0,7.55228,0,7C0,7,0,7,0,7ZM0,13C0,12.4477,0.447715,12,1,12C1,12,19,12,19,12C19.5523,12,20,12.4477,20,13C20,13.5523,19.5523,14,19,14C19,14,1,14,1,14C0.447715,14,0,13.5523,0,13C0,13,0,13,0,13Z" fill-rule="evenodd" fill="#FFFFFF" fill-opacity="1"/></g></svg>