<svg xmlns="http://www.w3.org/2000/svg" xmlns:xlink="http://www.w3.org/1999/xlink" fill="none" version="1.1" width="14" height="14" viewBox="0 0 14 14"><g style="mix-blend-mode:passthrough"><path d="M7,0C3.134,0,0,3.134,0,7C0,10.866,3.134,14,7,14C10.866,14,14,10.866,14,7C14,3.134,10.866,0,7,0C7,0,7,0,7,0ZM10.4647,5.4569C10.7381,5.18353,10.7381,4.74032,10.4647,4.46695C10.1914,4.19358,9.74813,4.19358,9.47478,4.46695C9.47478,4.46695,6.00995,7.93177,6.00995,7.93177C6.00995,7.93177,4.52502,6.44685,4.52502,6.44685C4.25165,6.17348,3.80844,6.17348,3.53507,6.44685C3.26171,6.72022,3.26171,7.16345,3.53507,7.4368C3.53507,7.4368,5.46547,9.36719,5.46547,9.36719C5.76618,9.66791,6.25372,9.66791,6.55441,9.36719C6.55441,9.36719,10.4647,5.4569,10.4647,5.4569C10.4647,5.4569,10.4647,5.4569,10.4647,5.4569Z" fill-rule="evenodd" fill="#767676" fill-opacity="1"/></g></svg>