<svg xmlns="http://www.w3.org/2000/svg" xmlns:xlink="http://www.w3.org/1999/xlink" fill="none" version="1.1" width="20" height="20" viewBox="0 0 20 20"><g style="mix-blend-mode:passthrough"><path d="M8.2989,19.2677C8.76775,19.7366,9.40367,20,10.0667,20L10.0692,20C10.7322,20,11.3681,19.7366,11.8369,19.2677C12.3057,18.7989,12.5692,18.163,12.5692,17.5L12.5692,17.3583C12.5696,17.2527,12.6008,17.1494,12.6592,17.0613C12.7176,16.9732,12.8003,16.9041,12.8975,16.8625L12.9058,16.8625C13.0043,16.819,13.1135,16.8059,13.2195,16.8247C13.3254,16.8436,13.4234,16.8936,13.5008,16.9683L13.5467,17.0142C13.7789,17.2464,14.0546,17.4307,14.358,17.5564C14.6614,17.6822,14.9867,17.7469,15.3151,17.7469C15.6436,17.747,15.9688,17.6823,16.2722,17.5567C16.5757,17.431,16.8515,17.2468,17.0837,17.0146C17.316,16.7823,17.5002,16.5067,17.626,16.2032C17.7517,15.8998,17.8165,15.5746,17.8165,15.2462C17.8166,14.9177,17.7519,14.5924,17.6262,14.289C17.5006,13.9855,17.3164,13.7098,17.0842,13.4775L17.0383,13.4317C16.9636,13.3542,16.9136,13.2563,16.8948,13.1503C16.8759,13.0443,16.889,12.9352,16.9325,12.8367L16.9325,12.8283C16.9739,12.7317,17.0425,12.6493,17.1299,12.5909C17.2174,12.5327,17.3199,12.5011,17.425,12.5L17.5,12.5C18.163,12.5,18.7989,12.2366,19.2677,11.7677C19.7366,11.2989,20,10.663,20,10C20,9.337,19.7366,8.70108,19.2677,8.23223C18.7989,7.76339,18.163,7.5,17.5,7.5L17.3617,7.5C17.2735,7.49943,17.1868,7.47735,17.1091,7.43567C17.0314,7.39398,16.9651,7.33397,16.9158,7.26083C16.9039,7.20356,16.8861,7.1477,16.8625,7.09417C16.819,6.9957,16.8059,6.88651,16.8247,6.78053C16.8436,6.67456,16.8936,6.5766,16.9683,6.49917L17.0142,6.45333C17.2464,6.22111,17.4307,5.94542,17.5564,5.64198C17.6822,5.33855,17.7469,5.01332,17.7469,4.68488C17.747,4.35643,17.6823,4.03119,17.5567,3.72772C17.431,3.42427,17.2468,3.14852,17.0146,2.91625C16.7823,2.68397,16.5067,2.49972,16.2032,2.37398C15.8998,2.24826,15.5746,2.18352,15.2462,2.18349C14.9177,2.18345,14.5924,2.2481,14.289,2.37376C13.9855,2.49942,13.7098,2.68362,13.4775,2.91583L13.4317,2.96167C13.3542,3.03642,13.2563,3.08643,13.1503,3.10527C13.0443,3.12413,12.9352,3.11098,12.8367,3.0675L12.8283,3.0675C12.7317,3.02611,12.6493,2.95751,12.5909,2.87007C12.5327,2.78262,12.5011,2.68009,12.5,2.575L12.5,2.5C12.5,1.83696,12.2366,1.20107,11.7677,0.732233C11.2989,0.263392,10.663,0,10,0C9.337,0,8.70108,0.263392,8.23223,0.732233C7.76339,1.20107,7.5,1.83696,7.5,2.5L7.5,2.63833C7.49971,2.72627,7.47801,2.81282,7.43678,2.8905C7.39553,2.96818,7.33601,3.03465,7.26333,3.08417C7.20606,3.09605,7.1502,3.11392,7.09667,3.1375C6.9982,3.18097,6.88901,3.19412,6.78303,3.17527C6.67706,3.15642,6.57911,3.10643,6.50167,3.03167L6.45583,2.98583C5.98684,2.51651,5.35063,2.25272,4.68713,2.25248C4.02365,2.25225,3.38724,2.51559,2.91792,2.98458C2.44859,3.45357,2.1848,4.08979,2.18457,4.75328C2.18433,5.41677,2.44767,6.05317,2.91667,6.5225L2.96583,6.5675C3.0406,6.64494,3.09059,6.74289,3.10944,6.84887C3.12829,6.95484,3.11514,7.06403,3.07167,7.1625C3.06444,7.17861,3.05777,7.195,3.05167,7.21167C3.01456,7.31247,2.94832,7.39996,2.86137,7.46303C2.77442,7.52608,2.67067,7.56187,2.56333,7.56583L2.5,7.56583C1.83696,7.56583,1.20107,7.82923,0.732233,8.29807C0.263392,8.76692,0,9.40283,0,10.0658C0,10.7289,0.263392,11.3647,0.732233,11.8336C1.20107,12.3024,1.83696,12.5658,2.5,12.5658L2.645,12.5658C2.75067,12.5662,2.8539,12.5975,2.94201,12.6558C3.03011,12.7142,3.09922,12.797,3.14083,12.8942L3.14083,12.9025C3.18431,13.001,3.19746,13.1102,3.17861,13.2162C3.15976,13.3221,3.10976,13.4201,3.035,13.4975L2.98917,13.5433C2.52007,14.0123,2.25648,14.6484,2.25641,15.3117C2.25633,15.9751,2.51976,16.6113,2.98875,17.0804C3.45774,17.5495,4.09387,17.8131,4.75721,17.8132C5.42053,17.8132,6.05673,17.5498,6.52583,17.0808L6.57167,17.035C6.64911,16.9603,6.74706,16.9102,6.85303,16.8914C6.95901,16.8726,7.0682,16.8857,7.16667,16.9292L7.2125,16.9483C7.3133,16.9854,7.40079,17.0517,7.46385,17.1387C7.52692,17.2256,7.5627,17.3293,7.56667,17.4367L7.56667,17.5C7.56667,18.163,7.83006,18.7989,8.2989,19.2677ZM8.82692,16.1844C8.57467,15.8262,8.22156,15.5511,7.8125,15.3942L7.81167,15.3942C7.40999,15.2227,6.96647,15.1741,6.5372,15.2547C6.10792,15.3352,5.71218,15.5412,5.4,15.8467L5.34333,15.9033C5.26585,15.9808,5.17388,16.0422,5.07267,16.0841C4.97146,16.1259,4.86299,16.1475,4.75346,16.1474C4.64392,16.1474,4.53547,16.1257,4.43428,16.0838C4.3331,16.0418,4.24117,15.9804,4.16375,15.9029C4.08633,15.8254,4.02492,15.7335,3.98303,15.6322C3.94116,15.5311,3.91962,15.4226,3.91966,15.313C3.9197,15.2035,3.94131,15.0951,3.98327,14.9938C4.02522,14.8927,4.08668,14.8007,4.16417,14.7233L4.22083,14.6667C4.52662,14.3552,4.73366,13.9602,4.81599,13.5316C4.89832,13.1028,4.85229,12.6594,4.68367,12.2568C4.51504,11.8541,4.23132,11.5102,3.86807,11.2681C3.50482,11.026,3.0782,10.8965,2.64167,10.8958L2.5,10.8958C2.27898,10.8958,2.06702,10.808,1.91074,10.6517C1.75447,10.4955,1.66667,10.2835,1.66667,10.0625C1.66667,9.8415,1.75447,9.6295,1.91074,9.47325C2.06702,9.317,2.27898,9.22917,2.5,9.22917L2.595,9.22917C3.03303,9.21925,3.45818,9.07925,3.81641,8.82692C4.17462,8.57467,4.44971,8.22156,4.60667,7.8125C4.77818,7.41082,4.82674,6.96731,4.7462,6.53803C4.66566,6.10876,4.45962,5.71302,4.15417,5.40083L4.0975,5.34417C3.94135,5.18769,3.85377,4.97559,3.854,4.75453C3.85423,4.53347,3.94228,4.32157,4.09875,4.16542C4.25522,4.00927,4.46732,3.92168,4.68838,3.92192C4.90944,3.92215,5.12135,4.01019,5.2775,4.16667L5.32667,4.21417L5.33333,4.22083C5.62766,4.50889,5.99666,4.70891,6.39867,4.79829C6.80068,4.88768,7.21968,4.86287,7.60833,4.72667C7.68407,4.71684,7.7581,4.69665,7.82833,4.66667C8.22481,4.49673,8.56283,4.2144,8.80067,3.85453C9.0385,3.49467,9.16575,3.07302,9.16667,2.64167L9.16667,2.5C9.16667,2.27898,9.2545,2.06702,9.41075,1.91074C9.567,1.75447,9.779,1.66667,10,1.66667C10.221,1.66667,10.433,1.75447,10.5892,1.91074C10.7455,2.06702,10.8333,2.27898,10.8333,2.5L10.8333,2.57833C10.8354,3.01374,10.9657,3.43888,11.2078,3.80076C11.45,4.16262,11.7933,4.44521,12.195,4.61325C12.5967,4.7813,13.0389,4.82737,13.4666,4.74573C13.8942,4.6641,14.2885,4.45835,14.6,4.15417L14.6567,4.0975C14.7339,4.02009,14.8257,3.95864,14.9267,3.91667C15.0278,3.87472,15.1363,3.85313,15.2458,3.85313C15.3553,3.85313,15.4638,3.87472,15.565,3.91667C15.6918,3.96901,15.8038,4.05185,15.8908,4.15783C15.9779,4.26381,16.0375,4.38966,16.0643,4.5242C16.0911,4.65874,16.0842,4.79782,16.0444,4.92908C16.0046,5.06034,15.9329,5.17974,15.8358,5.27667L15.7792,5.33333C15.4911,5.62766,15.2911,5.99666,15.2017,6.39867C15.1123,6.80068,15.1372,7.21968,15.2733,7.60833C15.2832,7.68407,15.3033,7.7581,15.3333,7.82833C15.5033,8.22481,15.7856,8.56283,16.1455,8.80067C16.5053,9.0385,16.927,9.16575,17.3583,9.16667L17.5,9.16667C17.721,9.16667,17.933,9.2545,18.0892,9.41075C18.2455,9.567,18.3333,9.779,18.3333,10C18.3333,10.221,18.2455,10.433,18.0892,10.5892C17.933,10.7455,17.721,10.8333,17.5,10.8333L17.4217,10.8333C16.9864,10.8356,16.5615,10.9659,16.1997,11.208C15.8381,11.4501,15.5557,11.7933,15.3876,12.1948C15.2196,12.5963,15.1735,13.0384,15.2549,13.4659C15.3364,13.8935,15.5419,14.2876,15.8458,14.5992L15.9033,14.6567C15.9808,14.7342,16.0422,14.8261,16.0841,14.9273C16.1259,15.0286,16.1475,15.137,16.1474,15.2466C16.1474,15.3561,16.1257,15.4645,16.0838,15.5657C16.0418,15.6669,15.9804,15.7588,15.9029,15.8362C15.8254,15.9137,15.7335,15.9751,15.6322,16.017C15.5311,16.0588,15.4226,16.0804,15.313,16.0803C15.2035,16.0803,15.0951,16.0587,14.9938,16.0168C14.8927,15.9748,14.8007,15.9133,14.7233,15.8358L14.6667,15.7792C14.3552,15.4734,13.9602,15.2663,13.5316,15.184C13.1028,15.1017,12.6594,15.1477,12.2568,15.3163C11.8541,15.4849,11.5102,15.7687,11.2681,16.1319C11.026,16.4952,10.8965,16.9218,10.8958,17.3583L10.8958,17.5C10.8958,17.721,10.808,17.933,10.6517,18.0892C10.4955,18.2455,10.2835,18.3333,10.0625,18.3333C9.8415,18.3333,9.6295,18.2455,9.47325,18.0892C9.317,17.933,9.22917,17.721,9.22917,17.5L9.22917,17.4058C9.21925,16.9678,9.07925,16.5427,8.82692,16.1844ZM8.1481,12.7716C8.69625,13.1378,9.34075,13.3333,10,13.3333C10.8841,13.3333,11.7319,12.9822,12.357,12.357C12.9822,11.7319,13.3333,10.8841,13.3333,10C13.3333,9.34075,13.1378,8.69625,12.7716,8.1481C12.4053,7.59993,11.8847,7.17269,11.2756,6.9204C10.6665,6.66811,9.99633,6.6021,9.34967,6.73072C8.70308,6.85933,8.10915,7.1768,7.64297,7.64297C7.1768,8.10915,6.85933,8.70308,6.73072,9.34967C6.6021,9.99633,6.66811,10.6665,6.9204,11.2756C7.17269,11.8847,7.59993,12.4053,8.1481,12.7716ZM9.07408,8.61425C9.34817,8.43108,9.67033,8.33333,10,8.33333C10.442,8.33333,10.8659,8.50892,11.1785,8.8215C11.4911,9.13408,11.6667,9.558,11.6667,10C11.6667,10.3297,11.5689,10.6518,11.3857,10.9259C11.2027,11.2,10.9423,11.4137,10.6378,11.5398C10.3333,11.6659,9.99817,11.6989,9.67483,11.6347C9.35158,11.5703,9.05458,11.4116,8.8215,11.1785C8.58842,10.9454,8.42967,10.6484,8.36533,10.3252C8.30105,10.0018,8.33408,9.66675,8.46017,9.36217C8.58633,9.05767,8.8,8.79733,9.07408,8.61425Z" fill-rule="evenodd" fill="#4A4A4A" fill-opacity="1"/></g></svg>