<svg xmlns="http://www.w3.org/2000/svg" xmlns:xlink="http://www.w3.org/1999/xlink" fill="none" version="1.1" width="22" height="22" viewBox="0 0 22 22"><defs><clipPath id="master_svg0_34_0199"><rect x="0" y="0" width="22" height="22" rx="0"/></clipPath></defs><g clip-path="url(#master_svg0_34_0199)"><g><path d="M18.45557548828125,19.947966796875L3.50532548828125,19.947966796875C2.33096548828125,19.947966796875,1.37879929828125,18.995866796875,1.37879929828125,17.821566796875L1.37879929828125,6.488426796875L1.37237548828125,6.492636796875Q1.37435208828125,6.021766796875,1.37622116828125,5.477796796874999C1.37587739828125,5.416846796874999,1.37587739828125,5.361266796875,1.37677978828125,5.310906796875C1.37826218828125,4.864226796875,1.37952973828125,4.396186796875,1.37952973828125,4.114466796875C1.37952973828125,3.086544796875,2.15322548828125,2.115966796875,3.30401548828125,2.115966796875L15.10177548828125,2.115966796875C16.12977548828125,2.115966796875,17.19717548828125,2.796419796875,17.19717548828125,4.114466796875C17.19717548828125,4.388306796875,17.199075488281252,4.620186796875,17.19397548828125,4.816916796875001L18.45557548828125,4.816916796875001C19.62997548828125,4.816916796875001,20.58217548828125,5.768996796875,20.58217548828125,6.943246796875L20.58217548828125,17.821566796875C20.58217548828125,18.995866796875,19.62997548828125,19.947966796875,18.45557548828125,19.947966796875ZM15.85627548828125,4.112636796875C15.85627548828125,3.727746796875,15.54207548828125,3.415516796875,15.10177548828125,3.415516796875L3.45444548828125,3.415516796875C3.0141654882812503,3.415516796875,2.69995548828125,3.7277667968749997,2.69995548828125,4.112636796875C2.69995548828125,4.497466796875,3.0141654882812503,4.809746796875,3.45444548828125,4.809746796875L15.85627548828125,4.809746796875L15.85627548828125,4.112636796875ZM19.23947548828125,10.996856796875L13.72967548828125,10.996856796875L13.72967548828125,13.746466796875L19.23947548828125,13.746466796875L19.23947548828125,10.996856796875ZM19.23947548828125,15.110466796875L13.42887548828125,15.110466796875C12.84167548828125,15.110466796875,12.36557548828125,14.737566796875,12.36557548828125,13.746466796875L12.36557548828125,10.696006796875C12.36557548828125,10.108946796875,12.84167548828125,9.632896796875,13.42887548828125,9.632896796875L19.23947548828125,9.632896796875L19.23947548828125,7.244096796875C19.23947548828125,6.656946796875,18.76337548828125,6.180896796875,18.17617548828125,6.180896796875L2.72146548828125,6.180896796875L2.72146548828125,17.520766796875C2.72146548828125,18.107866796875,3.19753548828125,18.583866796875,3.78472548828125,18.583866796875L18.17617548828125,18.583866796875C18.76337548828125,18.583866796875,19.23947548828125,18.107866796875,19.23947548828125,17.520766796875L19.23947548828125,15.110466796875Z" fill="#FFFFFF" fill-opacity="1"/></g></g></svg>